<svg width="162" height="196" viewBox="0 0 162 196" fill="none" xmlns="http://www.w3.org/2000/svg">
<g clip-path="url(#clip0_196_5)">
<path d="M111.021 99.9384H96.22V95.4461H89.744V47.1056H97.9136V39.5161H28.553V47.1056H36.6967V95.4461H30.2207V99.9384H15.4129C11.3275 99.9505 7.41292 101.587 4.52412 104.489C1.63532 107.392 0.00710031 111.325 -0.00488281 115.43V172.286C0.00710031 176.391 1.63532 180.325 4.52412 183.227C7.41292 186.13 11.3275 187.766 15.4129 187.778H19.8838C19.8838 188.857 20.0953 189.925 20.5062 190.922C20.917 191.919 21.5193 192.824 22.2785 193.587C23.0377 194.35 23.9391 194.955 24.931 195.368C25.923 195.781 26.9862 195.993 28.0599 195.993C29.1336 195.993 30.1968 195.781 31.1887 195.368C32.1807 194.955 33.082 194.35 33.8413 193.587C34.6005 192.824 35.2027 191.919 35.6136 190.922C36.0245 189.925 36.236 188.857 36.236 187.778H90.0555C90.0555 188.857 90.2669 189.925 90.6778 190.922C91.0887 191.919 91.6909 192.824 92.4502 193.587C93.2094 194.35 94.1107 194.955 95.1027 195.368C96.0947 195.781 97.1578 195.993 98.2315 195.993C99.3052 195.993 100.368 195.781 101.36 195.368C102.352 194.955 103.254 194.35 104.013 193.587C104.772 192.824 105.374 191.919 105.785 190.922C106.196 189.925 106.408 188.857 106.408 187.778H111.034C115.12 187.766 119.034 186.13 121.923 183.227C124.812 180.325 126.44 176.391 126.452 172.286V115.43C126.44 111.325 124.812 107.392 121.923 104.489C119.034 101.587 115.12 99.9505 111.034 99.9384H111.021ZM39.3182 47.1056H87.1159V95.4461H80.64V99.9384H45.7942V95.4461H39.3182V47.1056ZM24.5169 164.86L12.9795 151.995L47.0531 121.162L58.6164 134.019L24.5169 164.86ZM71.7047 111.877H90.2047V129.234H71.7047V111.877ZM95.1428 172.762C91.7264 172.762 88.3867 171.744 85.5461 169.837C82.7055 167.93 80.4914 165.219 79.1841 162.048C77.8766 158.876 77.5346 155.386 78.2011 152.019C78.8676 148.652 80.5127 145.56 82.9285 143.132C85.3443 140.705 88.4221 139.052 91.7729 138.382C95.1236 137.713 98.5968 138.056 101.753 139.37C104.909 140.684 107.607 142.908 109.505 145.763C111.403 148.617 112.416 151.973 112.416 155.405V155.438C112.415 160.032 110.598 164.438 107.365 167.686C104.132 170.935 99.7474 172.76 95.1752 172.762H95.1428Z" fill="#E76F51"/>
<path d="M75.2316 50.3619L67.9678 57.6258L93.3913 68.5216L104.292 93.9502L111.556 86.6863L107.924 68.5216L124.943 51.5024L143.488 91.0786L150.367 84.2L144.254 32.1971L158.781 17.6643C159.763 16.7165 160.545 15.5828 161.084 14.3293C161.622 13.0759 161.906 11.7277 161.918 10.3635C161.929 8.99927 161.669 7.64637 161.153 6.38371C160.636 5.12105 159.873 3.97392 158.909 3.00924C157.944 2.04457 156.797 1.28168 155.534 0.765085C154.272 0.24849 152.919 -0.0114666 151.554 0.000387916C150.19 0.0122425 148.842 0.295671 147.589 0.834131C146.335 1.37259 145.201 2.1553 144.254 3.13659L129.341 18.0496L77.3378 11.9313L70.8394 18.4349L110.107 37.288L93.3964 53.999L75.2316 50.3619Z" fill="#E76F51"/>
</g>
<defs>
<clipPath id="clip0_196_5">
<rect width="162" height="196" fill="white"/>
</clipPath>
</defs>
</svg>
